PathFileType	4	(X/Y/Z)	C:/Users/opensim2020/Desktop/walking_exp_matlab/subject03_walking06_straight_02.trc																																																																																																																																		
DataRate	CameraRate	NumFrames	NumMarkers	Units	OrigDataRate	OrigDataStartFrame	OrigNumFrames																																																																																																																														
100	100	7	44	mm	100	1459	238																																																																																																																														
Frame#	Time	LFHD			RFHD			LBHD			RBHD			C7			T10			CLAV			STRN			RBAK			LSHO			LUPA			LELB			LFRM			LWRA			LWRB			LFIN			RSHO			RUPA			RELB			RFRM			RWRA			RWRB			RFIN			LASI			RASI			LPSI			RPSI			LTHI			LKNE			LTIB			LANK			LHEE			LTOE			RTHI			RKNE			RTIB			RANK			RHEE			RTOE			*39			*40			*41			*42			*43		
		X1	Y1	Z1	X2	Y2	Z2	X3	Y3	Z3	X4	Y4	Z4	X5	Y5	Z5	X6	Y6	Z6	X7	Y7	Z7	X8	Y8	Z8	X9	Y9	Z9	X10	Y10	Z10	X11	Y11	Z11	X12	Y12	Z12	X13	Y13	Z13	X14	Y14	Z14	X15	Y15	Z15	X16	Y16	Z16	X17	Y17	Z17	X18	Y18	Z18	X19	Y19	Z19	X20	Y20	Z20	X21	Y21	Z21	X22	Y22	Z22	X23	Y23	Z23	X24	Y24	Z24	X25	Y25	Z25	X26	Y26	Z26	X27	Y27	Z27	X28	Y28	Z28	X29	Y29	Z29	X30	Y30	Z30	X31	Y31	Z31	X32	Y32	Z32	X33	Y33	Z33	X34	Y34	Z34	X35	Y35	Z35	X36	Y36	Z36	X37	Y37	Z37	X38	Y38	Z38	X39	Y39	Z39	X40	Y40	Z40	X41	Y41	Z41	X42	Y42	Z42	X43	Y43	Z43	X44	Y44	Z44
																																																																																																																																					
179	1.78	650.85889	1585.62708	949.82172	647.63812	1597.39636	1082.26843	517.44836	1562.00891	952.98761	519.45001	1572.78406	1083.14209	467.90717	1403.34753	1019.77563	423.39987	1087.7533	1015.9187	584.38501	1319.9856	1021.77783	621.96851	1154.84912	1022.63702	404.85184	1230.19275	1117.5946	540.26843	1357.1438	864.23584	494.19714	1163.01318	794.60785	477.48004	1040.2782	782.76648	483.2511	909.9104	786.05896	483.43823	791.48889	819.49054	461.41525	798.61761	767.97162	465.15787	714.60474	779.00781	538.26459	1349.83484	1179.97461	568.34637	1140.52576	1273.77722	609.84076	1038.58875	1298.83289	668.01556	915.49286	1310.36243	727.79376	833.91388	1281.33643	698.81268	821.00348	1324.90259	744.97394	762.84973	1321.0697	603.47144	919.11176	916.94092	579.77142	929.36774	1155.27136	437.60147	935.31183	950.24908	424.01746	956.40192	1097.89734	619.79144	622.8139	860.82935	703.91626	465.87042	895.75726	714.19312	275.05194	886.97003	767.38312	69.74316	914.58331	736.79694	28.17077	953.82343	918.68475	57.97634	933.86572	495.77057	638.24628	1189.2334	484.22653	457.81	1154.76794	401.98697	282.1134	1155.16919	330.87091	76.6972	1103.67273	283.18219	49.90882	1052.30005	468.28439	30.56711	1091.57703	576.90125	1662.56799	995.86304	NaN	NaN	NaN	NaN	NaN	NaN	NaN	NaN	NaN	NaN	NaN	NaN
180	1.79	660.4599	1584.13293	948.58447	657.30627	1596.15674	1081.03357	527.1355	1560.24402	951.70538	529.17529	1571.34229	1082.11121	477.68915	1401.86719	1018.79749	433.61655	1086.16187	1014.41864	594.28845	1318.45813	1021.07587	631.9707	1153.31689	1022.27972	414.48846	1228.63623	1116.27893	550.44989	1355.6532	863.41144	503.89395	1161.55835	793.93988	486.8287	1038.95703	782.54645	492.45377	908.57117	785.36383	492.18558	790.03809	819.07605	469.9621	797.19177	767.65668	473.30719	713.18262	778.84192	547.83191	1348.32727	1179.12463	578.55676	1139.15845	1272.8623	620.61127	1037.48804	1297.94177	679.46686	914.65424	1309.3667	739.67462	833.47461	1280.36218	710.80298	820.2785	1323.72412	757.35254	762.49939	1319.99695	614.70795	917.17981	917.07104	588.49805	928.11615	1155.14844	448.51657	933.82642	948.86133	433.37766	955.19476	1096.28381	628.53247	620.64606	859.65997	713.10553	464.0105	896.02295	728.43274	273.88824	886.55127	789.83765	70.95464	912.04022	761.67792	28.18182	951.99066	942.67902	63.48053	929.97833	502.1875	637.62775	1189.29968	489.54016	457.14716	1155.24329	405.04407	282.36899	1155.23413	331.37677	77.7791	1103.64722	283.56961	51.50227	1052.08398	468.35373	30.4315	1091.55017	588.94434	1661.16492	992.84064	NaN	NaN	NaN	NaN	NaN	NaN	NaN	NaN	NaN	NaN	NaN	NaN
181	1.8	670.10352	1582.66418	947.36127	667.15607	1595.01831	1079.80359	536.78796	1558.76929	950.81982	538.98041	1570.09985	1081.12109	487.61646	1400.39893	1017.8493	443.94489	1084.65308	1012.68939	604.40259	1316.95801	1020.36139	642.06665	1151.84094	1021.88031	424.28464	1227.073	1114.80762	560.81256	1354.20288	862.52112	513.81989	1160.18811	793.27795	496.4599	1037.45984	781.84503	501.57257	906.9527	785.12122	501.52161	788.85553	818.32086	478.90103	795.7746	767.28168	481.78876	711.70721	778.64923	557.33215	1346.87781	1178.23108	588.71405	1137.81104	1271.75256	631.18463	1036.31885	1296.77576	690.68433	913.7959	1308.14368	751.41272	833.0174	1279.11353	722.49188	819.62347	1322.50916	769.4176	762.15729	1318.75513	626.02704	915.31158	917.26093	597.36395	926.85693	1155.30969	459.59509	932.54346	947.40753	442.94879	954.01379	1094.52795	638.21674	618.76575	858.85693	721.89606	461.68625	896.25671	742.05859	272.83768	886.09656	810.88831	71.46976	910.2641	785.30994	28.19776	950.23914	964.88074	69.25288	926.09192	508.698	636.97107	1189.20813	494.91199	456.48364	1155.70972	408.20627	282.63388	1155.39038	332.01776	78.87959	1103.55591	283.97495	53.22187	1051.90308	468.59274	30.34654	1091.80249	597.11859	1659.24817	992.41394	NaN	NaN	NaN	NaN	NaN	NaN	NaN	NaN	NaN	NaN	NaN	NaN
182	1.81	679.82996	1581.39978	945.99695	676.95001	1593.93628	1078.47595	546.60156	1557.2533	949.48792	548.82019	1568.84998	1079.86426	497.60004	1398.91968	1016.77649	454.50116	1083.17749	1010.90894	614.48395	1315.57068	1019.5415	652.3457	1150.4502	1021.4538	434.20444	1225.57056	1113.25244	571.24237	1352.84583	861.55078	524.01398	1158.72815	792.65082	506.37646	1036.04102	781.43286	511.23532	905.5058	784.66028	510.98453	787.41614	817.82922	488.2084	794.36865	766.90344	490.59338	710.24194	778.43866	566.87299	1345.52515	1177.28064	598.78894	1136.453	1270.55493	641.63977	1035.08582	1295.43933	701.65137	912.84113	1306.71106	762.78174	832.4115	1277.67224	733.80725	818.75092	1320.95361	781.11383	761.60364	1317.20325	637.54309	913.55182	917.46545	606.26752	925.61115	1155.27917	470.53442	931.44843	945.89197	452.56003	952.92059	1092.67603	648.63086	617.14838	858.35175	731.14398	459.5441	896.63147	755.27252	272.25439	885.49164	830.57086	72.81689	907.69995	806.45837	28.56612	947.54651	985.07056	74.74193	922.15045	515.2948	636.33539	1189.13794	500.44531	455.81992	1156.17444	411.51929	283.00098	1155.56653	332.7363	80.08971	1103.60205	284.4458	55.18967	1051.81555	468.7951	30.3012	1092.07422	606.17767	1658.4353	991.43683	NaN	NaN	NaN	NaN	NaN	NaN	NaN	NaN	NaN	NaN	NaN	NaN
183	1.82	689.66547	1580.30713	944.62451	686.7934	1593.02759	1077.07654	556.435	1555.92188	948.23901	558.77441	1567.8562	1078.73596	507.84866	1397.46667	1015.4176	465.24655	1081.83728	1009.08051	624.63538	1314.25269	1018.72186	662.79645	1149.18042	1020.93201	444.22073	1224.11096	1111.52844	581.87061	1351.53442	860.50616	534.60754	1157.4718	791.88562	517.16254	1034.72632	780.99292	521.19916	904.0813	784.1535	521.16089	786.02667	817.09918	497.82574	792.98145	766.49042	499.78876	708.84375	778.20831	576.51813	1344.32166	1176.32886	608.69159	1135.1377	1269.24768	651.98761	1033.87256	1293.90344	712.37769	911.78546	1304.96118	773.89655	831.664	1275.86279	744.86792	817.78619	1318.96826	792.36749	760.85956	1315.28943	649.7608	912.04523	917.32172	615.21643	924.35748	1155.17126	482.08914	930.34131	944.02972	462.28482	951.94733	1090.78943	659.46899	615.71735	858.10004	740.37616	458.04691	896.93463	768.38446	271.91504	884.58221	848.49207	73.95609	905.16565	826.16003	28.82944	945.48199	1003.21851	79.30547	918.53339	521.94489	635.75677	1188.93335	506.23956	455.16495	1156.51123	414.99225	283.44281	1155.74072	333.37527	81.73824	1104.02856	285.05136	57.22891	1051.8396	468.9285	30.24297	1092.21423	616.65424	1656.77222	989.40295	NaN	NaN	NaN	NaN	NaN	NaN	NaN	NaN	NaN	NaN	NaN	NaN
184	1.83	699.57581	1579.3324	943.21661	696.73901	1592.36194	1075.69202	566.37714	1554.7627	946.99982	568.74939	1566.92395	1077.39783	518.31567	1396.21143	1014.12671	476.09711	1080.62708	1007.1662	635.05334	1313.13269	1017.82709	673.36304	1148.03259	1020.34076	454.44104	1222.81091	1109.70264	592.67645	1350.38879	859.46021	545.34741	1156.11462	791.16931	527.84314	1033.4187	780.40948	531.63562	902.68164	783.63129	530.91461	784.59442	816.88885	507.9357	791.69836	766.04724	509.40396	707.47528	777.94379	586.18616	1343.18518	1175.26001	618.49841	1133.86023	1267.78259	662.22345	1032.64026	1292.22949	722.9057	910.65527	1302.96887	784.65662	830.7655	1273.78308	755.54858	816.6936	1316.77185	803.25079	760.00452	1313.08203	660.88104	910.36078	917.84344	624.33984	923.17407	1154.97668	493.30927	929.45386	942.38538	472.23239	950.93689	1088.86707	670.59979	614.49225	858.03119	750.45178	456.49829	897.05359	781.11407	271.79416	883.40015	864.15167	74.68156	903.23419	842.48108	28.93035	942.96906	1019.16608	82.8413	914.91571	528.84076	635.21594	1188.68652	512.17749	454.60721	1156.80481	418.54984	284.02704	1155.84875	334.2211	83.32671	1104.17468	285.67191	59.61166	1051.86316	469.1441	30.14396	1092.36743	626.42786	1655.81274	987.96375	NaN	NaN	NaN	NaN	NaN	NaN	NaN	NaN	NaN	NaN	NaN	NaN
185	1.84	709.47803	1578.47253	941.73218	706.74475	1591.79456	1074.19287	576.32867	1553.68018	945.67932	578.81177	1566.06738	1075.96472	529.15143	1394.89014	1012.19843	487.17953	1079.55945	1005.31012	645.41852	1312.13367	1016.92316	684.11407	1147.10864	1019.71069	464.71039	1221.61035	1107.87329	603.65778	1349.28442	858.27222	556.49902	1154.88342	790.40491	538.35626	1032.13684	779.70325	542.40277	901.4162	783.07684	541.495	783.26147	816.64355	518.39648	790.42297	765.62097	519.4339	706.1991	777.6958	595.92804	1342.4093	1174.33911	628.28851	1132.67993	1266.22986	672.39893	1031.4585	1290.50977	733.24945	909.453	1300.65771	795.08838	829.72845	1271.36255	765.80322	815.46124	1314.04041	813.75458	758.9895	1310.59106	673.10358	909.23541	917.72351	633.70215	922.03668	1154.73242	504.96527	928.57684	940.4007	482.28503	949.97552	1086.84424	681.8772	613.44354	857.96588	761.14142	455.45627	896.56409	793.21582	271.58752	882.22559	877.37488	74.65057	901.82233	856.80389	28.49297	941.98419	1032.47571	84.61565	912.06342	535.96613	634.79272	1188.45276	518.24268	454.23953	1157.11536	422.26547	284.76419	1156.03235	335.2515	85.08488	1104.41235	286.42188	62.21048	1052.04224	469.21881	29.91159	1092.60718	635.33936	1655.31482	987.10828	NaN	NaN	NaN	NaN	NaN	NaN	NaN	NaN	NaN	NaN	NaN	NaN
